HIERARCHY
ROOT Hips
{
  OFFSET 13.6774 106.653 -34.4427
  CHANNELS 6 Xposition Yposition Zposition Zrotation Xrotation Yrotation
  JOINT ToSpine
  {
    OFFSET -2.69724 7.43032 -0.144315
    CHANNELS 3 Zrotation Xrotation Yrotation
    JOINT Spine
    {
      OFFSET -0.0310711 10.7595 1.96963
      CHANNELS 3 Zrotation Xrotation Yrotation
      JOINT Spine1
      {
        OFFSET 19.9056 3.91189 0.764692
        CHANNELS 3 Zrotation Xrotation Yrotation
        JOINT Neck
        {
          OFFSET 25.9749 7.03908 -0.130764
          CHANNELS 3 Zrotation Xrotation Yrotation
          JOINT Head
          {
            OFFSET 9.52751 0.295786 -0.907742
            CHANNELS 3 Zrotation Xrotation Yrotation
            End Site
            {
              OFFSET 16.4037 0.713936 2.7358
            }
          }
        }
        JOINT LeftShoulder
        {
          OFFSET 17.7449 4.33886 11.7777
          CHANNELS 3 Zrotation Xrotation Yrotation
          JOINT LeftArm
          {
            OFFSET 0.911315 1.27913 9.80584
            CHANNELS 3 Zrotation Xrotation Yrotation
            JOINT LeftForeArm
            {
              OFFSET 28.6126 1.18197 -3.53199
              CHANNELS 3 Zrotation Xrotation Yrotation
              JOINT LeftHand
              {
                OFFSET 27.5088 0.0218783 0.327423
                CHANNELS 3 Zrotation Xrotation Yrotation
                End Site
                {
                  OFFSET 18.6038 -0.000155887 0.382096
                }
              }
            }
          }
        }
        JOINT RightShoulder
        {
          OFFSET 17.1009 2.89543 -12.2328
          CHANNELS 3 Zrotation Xrotation Yrotation
          JOINT RightArm
          {
            OFFSET 1.4228 0.178766 -10.211
            CHANNELS 3 Zrotation Xrotation Yrotation
            JOINT RightForeArm
            {
              OFFSET 28.733 1.87905 2.64907
              CHANNELS 3 Zrotation Xrotation Yrotation
              JOINT RightHand
              {
                OFFSET 27.4588 0.290562 -0.101845
                CHANNELS 3 Zrotation Xrotation Yrotation
                End Site
                {
                  OFFSET 17.8396 -0.255518 -0.000602873
                }
              }
            }
          }
        }
      }
    }
  }
  JOINT LeftUpLeg
  {
    OFFSET -5.61296 -2.22332 -10.2353
    CHANNELS 3 Zrotation Xrotation Yrotation
    JOINT LeftLeg
    {
      OFFSET 2.56703 -44.7417 -7.93097
      CHANNELS 3 Zrotation Xrotation Yrotation
      JOINT LeftFoot
      {
        OFFSET 3.16933 -46.5642 -3.96578
        CHANNELS 3 Zrotation Xrotation Yrotation
        JOINT LeftToeBase
        {
          OFFSET 0.346054 -6.02161 12.8035
          CHANNELS 3 Zrotation Xrotation Yrotation
          End Site
          {
            OFFSET 0.134235 -1.35082 5.13018
          }
        }
      }
    }
  }
  JOINT RightUpLeg
  {
    OFFSET -5.7928 -1.72406 10.6446
    CHANNELS 3 Zrotation Xrotation Yrotation
    JOINT RightLeg
    {
      OFFSET -2.57161 -44.7178 -7.85259
      CHANNELS 3 Zrotation Xrotation Yrotation
      JOINT RightFoot
      {
        OFFSET -3.10148 -46.5936 -4.03391
        CHANNELS 3 Zrotation Xrotation Yrotation
        JOINT RightToeBase
        {
          OFFSET -0.0828122 -6.13587 12.8035
          CHANNELS 3 Zrotation Xrotation Yrotation
          End Site
          {
            OFFSET -0.131328 -1.35082 5.13018
          }
        }
      }
    }
  }
}
MOTION
Frames: 14
Frame Time: 0.03333333333333333
0.0000 93.1000 0.0000 49.9996 -31.9127 -31.4360 -70.7407 0.3989 87.9949 134.9436 67.3615 -49.0939 -2.6954 23.3617 3.2235 -135.5176 39.7407 155.3766 159.1156 79.5986 -114.6031 0.1749 -12.0205 -24.4224 -76.4019 46.0378 -90.6435 11.4067 8.1825 -54.0166 -0.3975 0.4832 -0.3912 -2.6899 7.8925 41.6557 -117.6177 -6.3342 92.1150 12.2446 -4.6049 70.5131 0.4352 -1.0395 -0.6047 -23.1606 13.0259 100.3486 -11.4730 68.1426 -7.7849 -4.2332 -12.9220 -1.8540 7.2724 -16.5790 15.6987 -6.9606 -9.7199 79.6945 2.7132 60.6656 -6.1976 -13.5953 -15.9248 1.5425 0.7755 -1.3918 -11.4834 
0.0000 93.1000 0.0000 48.9345 -31.5590 -32.2972 -70.6985 0.6857 87.9594 137.2212 66.1964 -51.3210 -2.7523 23.4848 3.4656 -136.4496 39.8316 156.2141 155.0686 79.4377 -110.9670 0.9829 -12.0312 -24.8035 -77.0859 46.3759 -87.8610 9.3566 8.5487 -48.2021 -0.3715 0.8163 -0.5374 -2.4748 8.1438 40.7992 -115.8736 -7.4773 91.0838 12.8795 -5.7811 69.2492 0.5123 -1.3630 -0.6207 -21.8534 13.5617 99.2235 -16.1386 74.2620 -5.1982 -4.7519 -11.2241 -1.9343 8.2215 -18.0337 16.0143 -4.2639 -9.9867 79.9725 3.6582 63.7194 -7.1826 -14.2034 -17.4993 1.7921 1.1835 -1.8647 -11.8056 
0.0000 93.1000 0.0000 47.7402 -31.7169 -33.3806 -70.7455 0.3453 88.0300 140.4477 65.1218 -53.2262 -2.7848 23.3061 3.7844 -137.4268 40.3564 158.4559 150.0970 78.9690 -105.5920 0.9973 -11.7293 -24.7883 -78.8500 47.2195 -84.7322 8.1085 9.0026 -43.0464 -0.4230 0.7099 -0.7194 -2.9175 8.1811 40.1560 -114.8720 -8.6300 91.1060 13.0673 -5.8224 67.7455 0.5377 -1.9936 -1.2093 -21.1477 13.6136 98.0783 -27.3753 79.0849 6.9286 -4.9179 -9.8973 -1.7406 8.2198 -18.5763 14.9312 -2.0731 -10.0549 80.9204 4.6541 66.9079 -7.9682 -13.7095 -18.2702 1.8331 1.2585 -2.6274 -14.0987 
0.0000 93.1000 0.0000 46.6798 -32.5683 -32.7781 -70.7278 0.5440 88.0117 142.4350 64.3617 -54.9642 -2.3341 22.9114 3.5855 -137.3802 40.2704 157.1987 157.6550 79.3700 -114.2464 1.1231 -11.5535 -25.0327 -80.3749 47.7779 -81.7328 7.9716 9.8259 -39.1495 -0.3373 0.7294 -0.8460 -2.9723 8.2813 40.2113 -113.1610 -8.7786 91.3793 13.0341 -5.6422 66.1465 0.6194 -1.9007 -1.4509 -21.1980 13.8676 96.2354 -56.4147 82.9541 34.9377 -4.8605 -6.8888 -1.5257 8.8385 -19.5708 14.4588 0.5633 -9.0365 81.8349 6.6110 69.9266 -8.9185 -13.8110 -19.1383 1.7784 1.3613 -1.7211 -14.6666 
0.0000 93.1000 0.0000 46.4158 -32.6639 -33.5895 -70.7498 0.2731 88.0633 144.6201 63.2683 -55.9479 -2.5747 23.0662 2.4920 -138.2592 40.2383 157.4445 164.0334 79.7547 -119.5320 0.7973 -11.1809 -24.2824 -81.3936 47.8063 -77.8017 7.8340 10.6705 -37.3788 -0.1471 0.1621 -0.3120 -3.0333 8.2111 41.0630 -111.0729 -8.8118 92.0451 12.9995 -6.4363 64.2450 0.5075 -0.6701 -0.6365 -21.7580 13.7725 95.3496 -101.9279 84.2705 80.5446 -5.2629 -2.0200 -0.6462 8.3835 -19.0931 11.1273 3.1627 -8.0405 81.8020 7.6353 73.4682 -11.9220 -14.3912 -20.5545 0.9763 1.9418 -1.6946 -15.5026 
0.0000 93.1000 0.0000 45.4654 -33.5318 -34.0354 -70.6546 0.2991 88.1407 146.7542 62.2410 -57.1271 -3.0050 23.2131 2.5106 -139.2322 40.0888 157.1145 163.5862 79.1611 -119.4487 1.1305 -10.3480 -23.4238 -83.2944 48.7672 -73.6844 7.5191 10.0402 -36.2049 -0.2668 0.2636 -0.6246 -3.1693 8.8273 40.8807 -108.9430 -8.8690 92.0617 12.8056 -7.2345 63.4673 0.5336 -0.8415 -0.6564 -22.9282 13.4701 93.9676 -130.0683 82.1891 107.0536 -5.7047 2.0488 -0.0021 7.1584 -17.1670 11.4240 4.9267 -6.9599 82.1140 10.8713 76.0091 -14.4692 -14.6429 -21.6400 0.8181 1.6361 -2.0432 -17.2741 
0.0000 93.1000 0.0000 44.4931 -34.5433 -34.5186 -70.5582 -0.0617 88.2068 148.6821 61.5221 -58.2516 -3.0724 23.9421 3.0005 -140.1934 39.9426 159.2003 159.8369 78.9759 -114.2946 0.9965 -9.7095 -23.0093 -85.0224 49.0172 -69.7186 7.0851 10.0729 -34.0212 -0.3111 0.2104 -0.5716 -3.2191 9.0748 41.0193 -107.7890 -7.6687 92.1089 12.6096 -7.8359 61.4276 0.4597 -0.8934 -0.6504 -23.8695 13.6796 93.0980 -141.5031 80.1247 116.2771 -5.7543 4.2041 0.5737 7.1528 -17.2417 11.3686 6.8899 -5.2049 83.5309 14.4485 79.4099 -19.0041 -13.7852 -22.1943 0.4864 1.2878 -0.9089 -17.7109 
0.0000 93.1000 0.0000 44.7431 -34.9422 -33.2570 -70.5893 0.0752 88.2790 149.7150 60.9413 -59.4315 -3.6448 24.4386 3.2120 -140.2235 40.2293 160.1952 161.2450 78.7950 -113.9124 1.1850 -9.5111 -23.0092 -85.4284 49.9689 -66.6379 6.1354 10.0231 -33.8768 -0.1829 0.1647 -0.1066 -2.8805 9.0295 41.8665 -105.7158 -7.0119 92.2078 12.8978 -8.0557 59.4688 0.3101 -0.4199 -0.1625 -25.7733 13.7508 93.1038 -145.8380 79.7435 120.3927 -4.6707 2.1178 -0.1194 8.3425 -19.1612 10.8387 9.5865 -3.9174 83.2167 23.3393 83.3762 -28.8041 -13.5393 -23.2165 0.1402 2.7787 -0.7036 -19.4528 
0.0000 93.1000 0.0000 44.5820 -36.3868 -33.5618 -70.6159 0.0843 88.4086 151.5679 60.3837 -61.3220 -4.3898 24.4619 3.3364 -140.1707 40.2246 159.6830 161.1528 78.8790 -113.9762 1.4482 -9.0408 -21.2010 -85.9746 50.8226 -62.6289 6.1729 9.8458 -32.7928 -0.2388 0.4528 -0.1037 -2.9779 8.9151 42.8586 -103.8196 -5.6761 92.0863 11.4915 -7.8582 58.4513 0.1681 -0.7298 -0.4784 -28.1634 13.6179 91.9429 -146.9287 79.1086 122.4222 -2.8771 -3.6991 -0.9732 11.6208 -24.2373 11.9733 11.9109 -2.8421 83.2369 51.5617 86.1917 -56.7669 -13.7851 -24.5193 0.1857 3.3684 -1.5286 -22.1534 
0.0000 93.1000 0.0000 45.0026 -37.0556 -33.2687 -70.6369 0.0104 88.3576 153.6744 59.4164 -62.3426 -4.2590 24.4924 3.1898 -140.0626 39.7477 160.3701 159.3605 78.9314 -111.9675 1.3694 -8.0197 -19.9728 -85.3007 53.2785 -61.7174 6.1047 10.6006 -30.7487 0.0461 0.1894 -0.0917 -2.9233 8.9493 43.0293 -102.9258 -4.6437 91.9538 10.9730 -7.7658 58.4912 0.0146 -0.3090 -0.1719 -30.6947 12.9574 91.0784 -149.5865 78.1194 125.4230 -3.5945 -8.1886 -1.1777 17.0195 -31.0929 15.0185 14.2976 -1.1550 83.3045 118.3292 86.4810 -123.5646 -13.4799 -25.2479 0.2566 2.9861 -1.8056 -22.1942 
0.0000 93.1000 0.0000 45.4807 -38.9477 -32.0978 -70.8627 0.1454 88.0791 155.7940 58.9032 -64.4743 -4.7805 25.1298 3.3255 -139.2615 39.9825 160.0212 159.9571 79.1701 -112.9277 1.5983 -7.5971 -19.1196 -85.9950 53.1259 -58.6073 5.9432 10.9168 -29.7543 0.0578 0.0585 -0.5818 -3.3222 9.0448 42.8938 -101.5527 -3.8761 91.3396 11.6447 -7.6982 57.5148 0.1689 -0.5148 -0.3932 -33.0929 13.0285 89.9509 -152.5743 76.8207 129.6260 -3.7024 -11.0086 -1.2595 22.8185 -37.1967 20.9611 15.8900 -0.9770 83.3464 148.2601 83.4037 -155.4055 -14.5367 -25.3671 0.0612 2.9175 -3.8947 -23.2794 
0.0000 93.1000 0.0000 47.7611 -39.0228 -30.3046 -70.8502 0.3020 88.0487 157.7156 57.4661 -66.3814 -4.7741 25.3906 3.2510 -139.2791 39.9340 158.4032 159.7584 79.0933 -111.8378 1.3900 -7.1044 -18.9091 -86.1450 53.0000 -56.5839 6.2459 10.8862 -28.6724 -0.0611 0.0151 -0.5756 -3.0974 9.3293 43.1053 -99.7557 -3.7148 91.1976 10.8296 -7.8183 56.3571 0.4606 -0.6692 -0.3713 -34.0277 13.6616 88.3476 -157.1631 74.0417 134.1886 -2.8856 -13.9974 -1.9313 26.1013 -39.5726 25.1043 17.0399 -2.0581 82.3537 158.2564 79.6356 -165.6755 -15.9243 -26.2905 0.1040 3.0443 -4.4965 -23.3205 
0.0000 93.1000 0.0000 48.7062 -40.1020 -29.3800 -70.8698 0.1569 88.0974 159.6949 57.1285 -67.3647 -4.8543 26.1245 3.2418 -137.1246 39.8785 157.2132 160.7654 79.8167 -110.6320 1.1126 -7.4765 -18.4199 -88.1294 52.8412 -52.6723 6.3461 12.9033 -27.6737 -0.2416 0.0668 -0.2564 -3.0236 8.9136 43.9535 -97.7719 -1.9072 91.1087 9.7851 -7.7260 55.3144 0.2907 -0.1325 -0.0065 -34.8894 14.0707 86.7745 -161.0851 71.1259 136.0155 -1.7694 -15.9811 -2.1276 27.7538 -39.2884 28.9294 18.1945 -2.9349 81.2130 161.8231 75.5608 -168.6759 -15.9820 -27.3006 -0.1241 2.7130 -4.4706 -22.1501 
0.0000 93.1000 0.0000 49.7064 -41.2470 -28.9972 -70.9558 0.1467 88.1919 160.5569 56.4714 -69.3680 -5.1231 27.1794 3.2818 -136.0687 40.0657 156.2652 158.1316 80.0117 -108.6198 0.9853 -7.0083 -18.0956 -89.2784 52.0696 -50.6625 7.0374 13.6108 -27.8227 -0.1598 0.1685 -0.4941 -2.8375 8.9031 43.0270 -96.5890 -1.0943 90.9584 10.7252 -8.9262 53.2121 0.2941 -0.2520 -0.1487 -34.9021 14.9886 85.7000 -162.9733 67.1327 136.7750 -0.7640 -16.7356 -2.1427 30.0826 -41.3143 30.4706 20.1890 -2.9778 80.1295 164.8530 72.5750 -171.9914 -15.9246 -27.2302 0.0622 2.9027 -5.2226 -23.5938 
